  0
SECTION
  2
HEADER
  9
$ACADVER
  1
AC1009
  9
$EXTMIN
 10
0.0
 20
0.0
 30
0.0
  9
$EXTMAX
 10
1000.0
 20
1000.0
 30
0.0
  9
$FILLMODE
 70
 0
  9
$SPLFRAME
 70
 1
  0
ENDSEC
  0
SECTION
  2
TABLES
  0
TABLE
  2
LAYER
 70
1
  0
LAYER
  2
0
 70
     0
 62
     7
  6
CONTINUOUS
  0
ENDTAB
  0
ENDSEC
  0
SECTION
  2
ENTITIES
  0
LINE
  8
0
 62
     0
 10
330.472
 20
95.5075
 30
0.0
 11
330.707
 21
95.498
 31
0.0
  0
LINE
  8
0
 62
     0
 10
330.707
 20
95.498
 30
0.0
 11
330.94
 21
95.4719
 31
0.0
  0
LINE
  8
0
 62
     0
 10
330.94
 20
95.4719
 30
0.0
 11
331.172
 21
95.425
 31
0.0
  0
LINE
  8
0
 62
     0
 10
331.172
 20
95.425
 30
0.0
 11
331.399
 21
95.3615
 31
0.0
  0
LINE
  8
0
 62
     0
 10
331.399
 20
95.3615
 30
0.0
 11
331.619
 21
95.2789
 31
0.0
  0
LINE
  8
0
 62
     0
 10
331.619
 20
95.2789
 30
0.0
 11
331.833
 21
95.1812
 31
0.0
  0
LINE
  8
0
 62
     0
 10
331.833
 20
95.1812
 30
0.0
 11
332.038
 21
95.0655
 31
0.0
  0
LINE
  8
0
 62
     0
 10
332.038
 20
95.0655
 30
0.0
 11
332.234
 21
94.9357
 31
0.0
  0
LINE
  8
0
 62
     0
 10
332.234
 20
94.9357
 30
0.0
 11
332.42
 21
94.7896
 31
0.0
  0
LINE
  8
0
 62
     0
 10
332.42
 20
94.7896
 30
0.0
 11
332.592
 21
94.6298
 31
0.0
  0
LINE
  8
0
 62
     0
 10
332.592
 20
94.6298
 30
0.0
 11
332.752
 21
94.4563
 31
0.0
  0
LINE
  8
0
 62
     0
 10
332.752
 20
94.4563
 30
0.0
 11
332.898
 21
94.2717
 31
0.0
  0
LINE
  8
0
 62
     0
 10
332.898
 20
94.2717
 30
0.0
 11
333.029
 21
94.076
 31
0.0
  0
LINE
  8
0
 62
     0
 10
333.029
 20
94.076
 30
0.0
 11
333.145
 21
93.8692
 31
0.0
  0
LINE
  8
0
 62
     0
 10
333.145
 20
93.8692
 30
0.0
 11
333.243
 21
93.6554
 31
0.0
  0
LINE
  8
0
 62
     0
 10
333.243
 20
93.6554
 30
0.0
 11
333.324
 21
93.435
 31
0.0
  0
LINE
  8
0
 62
     0
 10
333.324
 20
93.435
 30
0.0
 11
333.389
 21
93.2078
 31
0.0
  0
LINE
  8
0
 62
     0
 10
333.389
 20
93.2078
 30
0.0
 11
333.434
 21
92.9778
 31
0.0
  0
LINE
  8
0
 62
     0
 10
333.434
 20
92.9778
 30
0.0
 11
333.462
 21
92.7435
 31
0.0
  0
LINE
  8
0
 62
     0
 10
333.462
 20
92.7435
 30
0.0
 11
333.471
 21
92.5079
 31
0.0
  0
LINE
  8
0
 62
     0
 10
333.471
 20
92.5079
 30
0.0
 11
333.471
 21
3.25768
 31
0.0
  0
LINE
  8
0
 62
     0
 10
333.471
 20
3.25768
 30
0.0
 11
333.462
 21
3.02066
 31
0.0
  0
LINE
  8
0
 62
     0
 10
333.462
 20
3.02066
 30
0.0
 11
333.434
 21
2.78777
 31
0.0
  0
LINE
  8
0
 62
     0
 10
333.434
 20
2.78777
 30
0.0
 11
333.389
 21
2.55626
 31
0.0
  0
LINE
  8
0
 62
     0
 10
333.389
 20
2.55626
 30
0.0
 11
333.324
 21
2.32888
 31
0.0
  0
LINE
  8
0
 62
     0
 10
333.324
 20
2.32888
 30
0.0
 11
333.243
 21
2.1084
 31
0.0
  0
LINE
  8
0
 62
     0
 10
333.243
 20
2.1084
 30
0.0
 11
333.145
 21
1.8948
 31
0.0
  0
LINE
  8
0
 62
     0
 10
333.145
 20
1.8948
 30
0.0
 11
333.029
 21
1.68947
 31
0.0
  0
LINE
  8
0
 62
     0
 10
333.029
 20
1.68947
 30
0.0
 11
332.898
 21
1.4938
 31
0.0
  0
LINE
  8
0
 62
     0
 10
332.898
 20
1.4938
 30
0.0
 11
332.752
 21
1.30776
 31
0.0
  0
LINE
  8
0
 62
     0
 10
332.752
 20
1.30776
 30
0.0
 11
332.592
 21
1.1355
 31
0.0
  0
LINE
  8
0
 62
     0
 10
332.592
 20
1.1355
 30
0.0
 11
332.42
 21
0.975653
 31
0.0
  0
LINE
  8
0
 62
     0
 10
332.42
 20
0.975653
 30
0.0
 11
332.234
 21
0.829578
 31
0.0
  0
LINE
  8
0
 62
     0
 10
332.234
 20
0.829578
 30
0.0
 11
332.038
 21
0.698666
 31
0.0
  0
LINE
  8
0
 62
     0
 10
332.038
 20
0.698666
 30
0.0
 11
331.833
 21
0.582909
 31
0.0
  0
LINE
  8
0
 62
     0
 10
331.833
 20
0.582909
 30
0.0
 11
331.619
 21
0.485069
 31
0.0
  0
LINE
  8
0
 62
     0
 10
331.619
 20
0.485069
 30
0.0
 11
331.399
 21
0.403765
 31
0.0
  0
LINE
  8
0
 62
     0
 10
331.399
 20
0.403765
 30
0.0
 11
331.172
 21
0.338998
 31
0.0
  0
LINE
  8
0
 62
     0
 10
331.172
 20
0.338998
 30
0.0
 11
330.94
 21
0.293522
 31
0.0
  0
LINE
  8
0
 62
     0
 10
330.94
 20
0.293522
 30
0.0
 11
330.707
 21
0.265961
 31
0.0
  0
LINE
  8
0
 62
     0
 10
330.707
 20
0.265961
 30
0.0
 11
330.472
 21
0.256315
 31
0.0
  0
LINE
  8
0
 62
     0
 10
330.472
 20
0.256315
 30
0.0
 11
3.09507
 21
0.257693
 31
0.0
  0
LINE
  8
0
 62
     0
 10
3.09507
 20
0.257693
 30
0.0
 11
2.85943
 21
0.265961
 31
0.0
  0
LINE
  8
0
 62
     0
 10
2.85943
 20
0.265961
 30
0.0
 11
2.62516
 21
0.293522
 31
0.0
  0
LINE
  8
0
 62
     0
 10
2.62516
 20
0.293522
 30
0.0
 11
2.39503
 21
0.338998
 31
0.0
  0
LINE
  8
0
 62
     0
 10
2.39503
 20
0.338998
 30
0.0
 11
2.16765
 21
0.403765
 31
0.0
  0
LINE
  8
0
 62
     0
 10
2.16765
 20
0.403765
 30
0.0
 11
1.94717
 21
0.485069
 31
0.0
  0
LINE
  8
0
 62
     0
 10
1.94717
 20
0.485069
 30
0.0
 11
1.73357
 21
0.582909
 31
0.0
  0
LINE
  8
0
 62
     0
 10
1.73357
 20
0.582909
 30
0.0
 11
1.52687
 21
0.698666
 31
0.0
  0
LINE
  8
0
 62
     0
 10
1.52687
 20
0.698666
 30
0.0
 11
1.33119
 21
0.829578
 31
0.0
  0
LINE
  8
0
 62
     0
 10
1.33119
 20
0.829578
 30
0.0
 11
1.14653
 21
0.975653
 31
0.0
  0
LINE
  8
0
 62
     0
 10
1.14653
 20
0.975653
 30
0.0
 11
0.972894
 21
1.1355
 31
0.0
  0
LINE
  8
0
 62
     0
 10
0.972894
 20
1.1355
 30
0.0
 11
0.813043
 21
1.30776
 31
0.0
  0
LINE
  8
0
 62
     0
 10
0.813043
 20
1.30776
 30
0.0
 11
0.666972
 21
1.4938
 31
0.0
  0
LINE
  8
0
 62
     0
 10
0.666972
 20
1.4938
 30
0.0
 11
0.537436
 21
1.68947
 31
0.0
  0
LINE
  8
0
 62
     0
 10
0.537436
 20
1.68947
 30
0.0
 11
0.421679
 21
1.8948
 31
0.0
  0
LINE
  8
0
 62
     0
 10
0.421679
 20
1.8948
 30
0.0
 11
0.323839
 21
2.1084
 31
0.0
  0
LINE
  8
0
 62
     0
 10
0.323839
 20
2.1084
 30
0.0
 11
0.241157
 21
2.32888
 31
0.0
  0
LINE
  8
0
 62
     0
 10
0.241157
 20
2.32888
 30
0.0
 11
0.177767
 21
2.55626
 31
0.0
  0
LINE
  8
0
 62
     0
 10
0.177767
 20
2.55626
 30
0.0
 11
0.130914
 21
2.78777
 31
0.0
  0
LINE
  8
0
 62
     0
 10
0.130914
 20
2.78777
 30
0.0
 11
0.104731
 21
3.02066
 31
0.0
  0
LINE
  8
0
 62
     0
 10
0.104731
 20
3.02066
 30
0.0
 11
0.0950846
 21
3.25768
 31
0.0
  0
LINE
  8
0
 62
     0
 10
0.0950846
 20
3.25768
 30
0.0
 11
0.0950846
 21
92.5079
 31
0.0
  0
LINE
  8
0
 62
     0
 10
0.0950846
 20
92.5079
 30
0.0
 11
0.104731
 21
92.7435
 31
0.0
  0
LINE
  8
0
 62
     0
 10
0.104731
 20
92.7435
 30
0.0
 11
0.130914
 21
92.9778
 31
0.0
  0
LINE
  8
0
 62
     0
 10
0.130914
 20
92.9778
 30
0.0
 11
0.177767
 21
93.2078
 31
0.0
  0
LINE
  8
0
 62
     0
 10
0.177767
 20
93.2078
 30
0.0
 11
0.241157
 21
93.435
 31
0.0
  0
LINE
  8
0
 62
     0
 10
0.241157
 20
93.435
 30
0.0
 11
0.323839
 21
93.6554
 31
0.0
  0
LINE
  8
0
 62
     0
 10
0.323839
 20
93.6554
 30
0.0
 11
0.421679
 21
93.8692
 31
0.0
  0
LINE
  8
0
 62
     0
 10
0.421679
 20
93.8692
 30
0.0
 11
0.537436
 21
94.076
 31
0.0
  0
LINE
  8
0
 62
     0
 10
0.537436
 20
94.076
 30
0.0
 11
0.666972
 21
94.2717
 31
0.0
  0
LINE
  8
0
 62
     0
 10
0.666972
 20
94.2717
 30
0.0
 11
0.813043
 21
94.4563
 31
0.0
  0
LINE
  8
0
 62
     0
 10
0.813043
 20
94.4563
 30
0.0
 11
0.972894
 21
94.6298
 31
0.0
  0
LINE
  8
0
 62
     0
 10
0.972894
 20
94.6298
 30
0.0
 11
1.14653
 21
94.7896
 31
0.0
  0
LINE
  8
0
 62
     0
 10
1.14653
 20
94.7896
 30
0.0
 11
1.33119
 21
94.9357
 31
0.0
  0
LINE
  8
0
 62
     0
 10
1.33119
 20
94.9357
 30
0.0
 11
1.52687
 21
95.0655
 31
0.0
  0
LINE
  8
0
 62
     0
 10
1.52687
 20
95.0655
 30
0.0
 11
1.73357
 21
95.1812
 31
0.0
  0
LINE
  8
0
 62
     0
 10
1.73357
 20
95.1812
 30
0.0
 11
1.94717
 21
95.2789
 31
0.0
  0
LINE
  8
0
 62
     0
 10
1.94717
 20
95.2789
 30
0.0
 11
2.16765
 21
95.3615
 31
0.0
  0
LINE
  8
0
 62
     0
 10
2.16765
 20
95.3615
 30
0.0
 11
2.39503
 21
95.425
 31
0.0
  0
LINE
  8
0
 62
     0
 10
2.39503
 20
95.425
 30
0.0
 11
2.62516
 21
95.4719
 31
0.0
  0
LINE
  8
0
 62
     0
 10
2.62516
 20
95.4719
 30
0.0
 11
2.85943
 21
95.498
 31
0.0
  0
LINE
  8
0
 62
     0
 10
2.85943
 20
95.498
 30
0.0
 11
3.09507
 21
95.5075
 31
0.0
  0
LINE
  8
0
 62
     0
 10
3.09507
 20
95.5075
 30
0.0
 11
330.472
 21
95.5075
 31
0.0
  0
LINE
  8
0
 62
     0
 10
171.688
 20
16.7817
 30
0.0
 11
171.688
 21
12.0826
 31
0.0
  0
LINE
  8
0
 62
     0
 10
171.688
 20
12.0826
 30
0.0
 11
136.82
 21
12.0826
 31
0.0
  0
LINE
  8
0
 62
     0
 10
136.82
 20
12.0826
 30
0.0
 11
136.82
 21
15.3128
 31
0.0
  0
LINE
  8
0
 62
     0
 10
136.82
 20
15.3128
 30
0.0
 11
135.096
 21
15.3128
 31
0.0
  0
LINE
  8
0
 62
     0
 10
135.096
 20
15.3128
 30
0.0
 11
135.096
 21
16.2333
 31
0.0
  0
LINE
  8
0
 62
     0
 10
135.096
 20
16.2333
 30
0.0
 11
131.796
 21
16.2333
 31
0.0
  0
LINE
  8
0
 62
     0
 10
131.796
 20
16.2333
 30
0.0
 11
131.796
 21
15.3128
 31
0.0
  0
LINE
  8
0
 62
     0
 10
131.796
 20
15.3128
 30
0.0
 11
130.339
 21
15.3128
 31
0.0
  0
LINE
  8
0
 62
     0
 10
130.339
 20
15.3128
 30
0.0
 11
130.339
 21
16.2333
 31
0.0
  0
LINE
  8
0
 62
     0
 10
130.339
 20
16.2333
 30
0.0
 11
127.038
 21
16.2333
 31
0.0
  0
LINE
  8
0
 62
     0
 10
127.038
 20
16.2333
 30
0.0
 11
127.038
 21
15.3128
 31
0.0
  0
LINE
  8
0
 62
     0
 10
127.038
 20
15.3128
 30
0.0
 11
125.312
 21
15.3128
 31
0.0
  0
LINE
  8
0
 62
     0
 10
125.312
 20
15.3128
 30
0.0
 11
125.312
 21
12.0826
 31
0.0
  0
LINE
  8
0
 62
     0
 10
125.312
 20
12.0826
 30
0.0
 11
124.488
 21
12.0826
 31
0.0
  0
LINE
  8
0
 62
     0
 10
124.488
 20
12.0826
 30
0.0
 11
124.488
 21
9.28247
 31
0.0
  0
LINE
  8
0
 62
     0
 10
124.488
 20
9.28247
 30
0.0
 11
125.312
 21
9.28247
 31
0.0
  0
LINE
  8
0
 62
     0
 10
125.312
 20
9.28247
 30
0.0
 11
125.312
 21
3.01377
 31
0.0
  0
LINE
  8
0
 62
     0
 10
125.312
 20
3.01377
 30
0.0
 11
127.038
 21
3.01377
 31
0.0
  0
LINE
  8
0
 62
     0
 10
127.038
 20
3.01377
 30
0.0
 11
127.038
 21
2.03261
 31
0.0
  0
LINE
  8
0
 62
     0
 10
127.038
 20
2.03261
 30
0.0
 11
130.339
 21
2.03261
 31
0.0
  0
LINE
  8
0
 62
     0
 10
130.339
 20
2.03261
 30
0.0
 11
130.339
 21
3.01377
 31
0.0
  0
LINE
  8
0
 62
     0
 10
130.339
 20
3.01377
 30
0.0
 11
131.796
 21
3.01377
 31
0.0
  0
LINE
  8
0
 62
     0
 10
131.796
 20
3.01377
 30
0.0
 11
131.796
 21
2.03261
 31
0.0
  0
LINE
  8
0
 62
     0
 10
131.796
 20
2.03261
 30
0.0
 11
135.096
 21
2.03261
 31
0.0
  0
LINE
  8
0
 62
     0
 10
135.096
 20
2.03261
 30
0.0
 11
135.096
 21
3.01377
 31
0.0
  0
LINE
  8
0
 62
     0
 10
135.096
 20
3.01377
 30
0.0
 11
136.82
 21
3.01377
 31
0.0
  0
LINE
  8
0
 62
     0
 10
136.82
 20
3.01377
 30
0.0
 11
136.82
 21
7.48273
 31
0.0
  0
LINE
  8
0
 62
     0
 10
136.82
 20
7.48273
 30
0.0
 11
171.688
 21
7.48273
 31
0.0
  0
LINE
  8
0
 62
     0
 10
171.688
 20
7.48273
 30
0.0
 11
171.688
 21
2.78226
 31
0.0
  0
LINE
  8
0
 62
     0
 10
171.688
 20
2.78226
 30
0.0
 11
197.595
 21
2.78226
 31
0.0
  0
LINE
  8
0
 62
     0
 10
197.595
 20
2.78226
 30
0.0
 11
197.595
 21
7.48273
 31
0.0
  0
LINE
  8
0
 62
     0
 10
197.595
 20
7.48273
 30
0.0
 11
225.314
 21
7.48273
 31
0.0
  0
LINE
  8
0
 62
     0
 10
225.314
 20
7.48273
 30
0.0
 11
225.314
 21
3.01377
 31
0.0
  0
LINE
  8
0
 62
     0
 10
225.314
 20
3.01377
 30
0.0
 11
227.039
 21
3.01377
 31
0.0
  0
LINE
  8
0
 62
     0
 10
227.039
 20
3.01377
 30
0.0
 11
227.039
 21
2.03261
 31
0.0
  0
LINE
  8
0
 62
     0
 10
227.039
 20
2.03261
 30
0.0
 11
230.339
 21
2.03261
 31
0.0
  0
LINE
  8
0
 62
     0
 10
230.339
 20
2.03261
 30
0.0
 11
230.339
 21
3.01377
 31
0.0
  0
LINE
  8
0
 62
     0
 10
230.339
 20
3.01377
 30
0.0
 11
232.063
 21
3.01377
 31
0.0
  0
LINE
  8
0
 62
     0
 10
232.063
 20
3.01377
 30
0.0
 11
232.063
 21
7.48273
 31
0.0
  0
LINE
  8
0
 62
     0
 10
232.063
 20
7.48273
 30
0.0
 11
243.126
 21
7.48273
 31
0.0
  0
LINE
  8
0
 62
     0
 10
243.126
 20
7.48273
 30
0.0
 11
243.126
 21
2.78226
 31
0.0
  0
LINE
  8
0
 62
     0
 10
243.126
 20
2.78226
 30
0.0
 11
246.096
 21
2.78226
 31
0.0
  0
LINE
  8
0
 62
     0
 10
246.096
 20
2.78226
 30
0.0
 11
246.096
 21
2.03261
 31
0.0
  0
LINE
  8
0
 62
     0
 10
246.096
 20
2.03261
 30
0.0
 11
249.396
 21
2.03261
 31
0.0
  0
LINE
  8
0
 62
     0
 10
249.396
 20
2.03261
 30
0.0
 11
249.396
 21
2.78226
 31
0.0
  0
LINE
  8
0
 62
     0
 10
249.396
 20
2.78226
 30
0.0
 11
257.127
 21
2.78226
 31
0.0
  0
LINE
  8
0
 62
     0
 10
257.127
 20
2.78226
 30
0.0
 11
257.127
 21
16.7817
 31
0.0
  0
LINE
  8
0
 62
     0
 10
257.127
 20
16.7817
 30
0.0
 11
243.126
 21
16.7817
 31
0.0
  0
LINE
  8
0
 62
     0
 10
243.126
 20
16.7817
 30
0.0
 11
243.126
 21
12.0826
 31
0.0
  0
LINE
  8
0
 62
     0
 10
243.126
 20
12.0826
 30
0.0
 11
232.063
 21
12.0826
 31
0.0
  0
LINE
  8
0
 62
     0
 10
232.063
 20
12.0826
 30
0.0
 11
232.063
 21
15.3128
 31
0.0
  0
LINE
  8
0
 62
     0
 10
232.063
 20
15.3128
 30
0.0
 11
230.339
 21
15.3128
 31
0.0
  0
LINE
  8
0
 62
     0
 10
230.339
 20
15.3128
 30
0.0
 11
230.339
 21
16.2333
 31
0.0
  0
LINE
  8
0
 62
     0
 10
230.339
 20
16.2333
 30
0.0
 11
227.039
 21
16.2333
 31
0.0
  0
LINE
  8
0
 62
     0
 10
227.039
 20
16.2333
 30
0.0
 11
227.039
 21
15.3128
 31
0.0
  0
LINE
  8
0
 62
     0
 10
227.039
 20
15.3128
 30
0.0
 11
225.314
 21
15.3128
 31
0.0
  0
LINE
  8
0
 62
     0
 10
225.314
 20
15.3128
 30
0.0
 11
225.314
 21
12.0826
 31
0.0
  0
LINE
  8
0
 62
     0
 10
225.314
 20
12.0826
 30
0.0
 11
197.595
 21
12.0826
 31
0.0
  0
LINE
  8
0
 62
     0
 10
197.595
 20
12.0826
 30
0.0
 11
197.595
 21
16.7817
 31
0.0
  0
LINE
  8
0
 62
     0
 10
197.595
 20
16.7817
 30
0.0
 11
171.688
 21
16.7817
 31
0.0
  0
LINE
  8
0
 62
     0
 10
312.182
 20
16.7817
 30
0.0
 11
328.563
 21
16.7817
 31
0.0
  0
LINE
  8
0
 62
     0
 10
328.563
 20
16.7817
 30
0.0
 11
328.563
 21
2.78226
 31
0.0
  0
LINE
  8
0
 62
     0
 10
328.563
 20
2.78226
 30
0.0
 11
312.182
 21
2.78226
 31
0.0
  0
LINE
  8
0
 62
     0
 10
312.182
 20
2.78226
 30
0.0
 11
312.182
 21
16.7817
 31
0.0
  0
LINE
  8
0
 62
     0
 10
288.371
 20
16.7817
 30
0.0
 11
304.752
 21
16.7817
 31
0.0
  0
LINE
  8
0
 62
     0
 10
304.752
 20
16.7817
 30
0.0
 11
304.752
 21
2.78226
 31
0.0
  0
LINE
  8
0
 62
     0
 10
304.752
 20
2.78226
 30
0.0
 11
288.371
 21
2.78226
 31
0.0
  0
LINE
  8
0
 62
     0
 10
288.371
 20
2.78226
 30
0.0
 11
288.371
 21
16.7817
 31
0.0
  0
LINE
  8
0
 62
     0
 10
264.557
 20
16.7817
 30
0.0
 11
280.938
 21
16.7817
 31
0.0
  0
LINE
  8
0
 62
     0
 10
280.938
 20
16.7817
 30
0.0
 11
280.938
 21
2.78226
 31
0.0
  0
LINE
  8
0
 62
     0
 10
280.938
 20
2.78226
 30
0.0
 11
264.557
 21
2.78226
 31
0.0
  0
LINE
  8
0
 62
     0
 10
264.557
 20
2.78226
 30
0.0
 11
264.557
 21
16.7817
 31
0.0
  0
LINE
  8
0
 62
     0
 10
100.251
 20
16.7817
 30
0.0
 11
116.633
 21
16.7817
 31
0.0
  0
LINE
  8
0
 62
     0
 10
116.633
 20
16.7817
 30
0.0
 11
116.633
 21
2.78226
 31
0.0
  0
LINE
  8
0
 62
     0
 10
116.633
 20
2.78226
 30
0.0
 11
100.251
 21
2.78226
 31
0.0
  0
LINE
  8
0
 62
     0
 10
100.251
 20
2.78226
 30
0.0
 11
100.251
 21
16.7817
 31
0.0
  0
LINE
  8
0
 62
     0
 10
76.4385
 20
16.7817
 30
0.0
 11
92.8204
 21
16.7817
 31
0.0
  0
LINE
  8
0
 62
     0
 10
92.8204
 20
16.7817
 30
0.0
 11
92.8204
 21
2.78226
 31
0.0
  0
LINE
  8
0
 62
     0
 10
92.8204
 20
2.78226
 30
0.0
 11
76.4385
 21
2.78226
 31
0.0
  0
LINE
  8
0
 62
     0
 10
76.4385
 20
2.78226
 30
0.0
 11
76.4385
 21
16.7817
 31
0.0
  0
LINE
  8
0
 62
     0
 10
52.626
 20
16.7817
 30
0.0
 11
69.0079
 21
16.7817
 31
0.0
  0
LINE
  8
0
 62
     0
 10
69.0079
 20
16.7817
 30
0.0
 11
69.0079
 21
2.78226
 31
0.0
  0
LINE
  8
0
 62
     0
 10
69.0079
 20
2.78226
 30
0.0
 11
52.626
 21
2.78226
 31
0.0
  0
LINE
  8
0
 62
     0
 10
52.626
 20
2.78226
 30
0.0
 11
52.626
 21
16.7817
 31
0.0
  0
LINE
  8
0
 62
     0
 10
21.671
 20
16.7817
 30
0.0
 11
35.6704
 21
16.7817
 31
0.0
  0
LINE
  8
0
 62
     0
 10
35.6704
 20
16.7817
 30
0.0
 11
35.6704
 21
2.78226
 31
0.0
  0
LINE
  8
0
 62
     0
 10
35.6704
 20
2.78226
 30
0.0
 11
21.671
 21
2.78226
 31
0.0
  0
LINE
  8
0
 62
     0
 10
21.671
 20
2.78226
 30
0.0
 11
21.671
 21
16.7817
 31
0.0
  0
LINE
  8
0
 62
     0
 10
2.62103
 20
16.7817
 30
0.0
 11
16.6205
 21
16.7817
 31
0.0
  0
LINE
  8
0
 62
     0
 10
16.6205
 20
16.7817
 30
0.0
 11
16.6205
 21
2.78226
 31
0.0
  0
LINE
  8
0
 62
     0
 10
16.6205
 20
2.78226
 30
0.0
 11
2.62103
 21
2.78226
 31
0.0
  0
LINE
  8
0
 62
     0
 10
2.62103
 20
2.78226
 30
0.0
 11
2.62103
 21
16.7817
 31
0.0
  0
LINE
  8
0
 62
     0
 10
290.751
 20
35.8316
 30
0.0
 11
290.751
 21
21.8323
 31
0.0
  0
LINE
  8
0
 62
     0
 10
290.751
 20
21.8323
 30
0.0
 11
293.726
 21
21.8323
 31
0.0
  0
LINE
  8
0
 62
     0
 10
293.726
 20
21.8323
 30
0.0
 11
293.726
 21
21.0826
 31
0.0
  0
LINE
  8
0
 62
     0
 10
293.726
 20
21.0826
 30
0.0
 11
297.027
 21
21.0826
 31
0.0
  0
LINE
  8
0
 62
     0
 10
297.027
 20
21.0826
 30
0.0
 11
297.027
 21
21.8323
 31
0.0
  0
LINE
  8
0
 62
     0
 10
297.027
 20
21.8323
 30
0.0
 11
314.277
 21
21.8323
 31
0.0
  0
LINE
  8
0
 62
     0
 10
314.277
 20
21.8323
 30
0.0
 11
314.277
 21
26.5327
 31
0.0
  0
LINE
  8
0
 62
     0
 10
314.277
 20
26.5327
 30
0.0
 11
315.801
 21
26.5327
 31
0.0
  0
LINE
  8
0
 62
     0
 10
315.801
 20
26.5327
 30
0.0
 11
315.801
 21
22.0624
 31
0.0
  0
LINE
  8
0
 62
     0
 10
315.801
 20
22.0624
 30
0.0
 11
316.946
 21
22.0624
 31
0.0
  0
LINE
  8
0
 62
     0
 10
316.946
 20
22.0624
 30
0.0
 11
316.946
 21
21.8323
 31
0.0
  0
LINE
  8
0
 62
     0
 10
316.946
 20
21.8323
 30
0.0
 11
317.526
 21
21.8323
 31
0.0
  0
LINE
  8
0
 62
     0
 10
317.526
 20
21.8323
 30
0.0
 11
317.526
 21
21.0826
 31
0.0
  0
LINE
  8
0
 62
     0
 10
317.526
 20
21.0826
 30
0.0
 11
320.827
 21
21.0826
 31
0.0
  0
LINE
  8
0
 62
     0
 10
320.827
 20
21.0826
 30
0.0
 11
320.827
 21
21.8323
 31
0.0
  0
LINE
  8
0
 62
     0
 10
320.827
 20
21.8323
 30
0.0
 11
330.945
 21
21.8323
 31
0.0
  0
LINE
  8
0
 62
     0
 10
330.945
 20
21.8323
 30
0.0
 11
330.945
 21
35.8316
 31
0.0
  0
LINE
  8
0
 62
     0
 10
330.945
 20
35.8316
 30
0.0
 11
316.946
 21
35.8316
 31
0.0
  0
LINE
  8
0
 62
     0
 10
316.946
 20
35.8316
 30
0.0
 11
316.946
 21
34.3628
 31
0.0
  0
LINE
  8
0
 62
     0
 10
316.946
 20
34.3628
 30
0.0
 11
315.801
 21
34.3628
 31
0.0
  0
LINE
  8
0
 62
     0
 10
315.801
 20
34.3628
 30
0.0
 11
315.801
 21
31.1326
 31
0.0
  0
LINE
  8
0
 62
     0
 10
315.801
 20
31.1326
 30
0.0
 11
314.277
 21
31.1326
 31
0.0
  0
LINE
  8
0
 62
     0
 10
314.277
 20
31.1326
 30
0.0
 11
314.277
 21
35.8316
 31
0.0
  0
LINE
  8
0
 62
     0
 10
314.277
 20
35.8316
 30
0.0
 11
290.751
 21
35.8316
 31
0.0
  0
LINE
  8
0
 62
     0
 10
62.151
 20
35.8316
 30
0.0
 11
62.151
 21
31.1326
 31
0.0
  0
LINE
  8
0
 62
     0
 10
62.151
 20
31.1326
 30
0.0
 11
60.6266
 21
31.1326
 31
0.0
  0
LINE
  8
0
 62
     0
 10
60.6266
 20
31.1326
 30
0.0
 11
60.6266
 21
34.3628
 31
0.0
  0
LINE
  8
0
 62
     0
 10
60.6266
 20
34.3628
 30
0.0
 11
58.9015
 21
34.3628
 31
0.0
  0
LINE
  8
0
 62
     0
 10
58.9015
 20
34.3628
 30
0.0
 11
58.9015
 21
35.2834
 31
0.0
  0
LINE
  8
0
 62
     0
 10
58.9015
 20
35.2834
 30
0.0
 11
55.601
 21
35.2834
 31
0.0
  0
LINE
  8
0
 62
     0
 10
55.601
 20
35.2834
 30
0.0
 11
55.601
 21
34.3628
 31
0.0
  0
LINE
  8
0
 62
     0
 10
55.601
 20
34.3628
 30
0.0
 11
53.8773
 21
34.3628
 31
0.0
  0
LINE
  8
0
 62
     0
 10
53.8773
 20
34.3628
 30
0.0
 11
53.8773
 21
31.1326
 31
0.0
  0
LINE
  8
0
 62
     0
 10
53.8773
 20
31.1326
 30
0.0
 11
53.0518
 21
31.1326
 31
0.0
  0
LINE
  8
0
 62
     0
 10
53.0518
 20
31.1326
 30
0.0
 11
53.0518
 21
28.3325
 31
0.0
  0
LINE
  8
0
 62
     0
 10
53.0518
 20
28.3325
 30
0.0
 11
53.8773
 21
28.3325
 31
0.0
  0
LINE
  8
0
 62
     0
 10
53.8773
 20
28.3325
 30
0.0
 11
53.8773
 21
22.0624
 31
0.0
  0
LINE
  8
0
 62
     0
 10
53.8773
 20
22.0624
 30
0.0
 11
55.601
 21
22.0624
 31
0.0
  0
LINE
  8
0
 62
     0
 10
55.601
 20
22.0624
 30
0.0
 11
55.601
 21
21.0826
 31
0.0
  0
LINE
  8
0
 62
     0
 10
55.601
 20
21.0826
 30
0.0
 11
58.9015
 21
21.0826
 31
0.0
  0
LINE
  8
0
 62
     0
 10
58.9015
 20
21.0826
 30
0.0
 11
58.9015
 21
22.0624
 31
0.0
  0
LINE
  8
0
 62
     0
 10
58.9015
 20
22.0624
 30
0.0
 11
60.6266
 21
22.0624
 31
0.0
  0
LINE
  8
0
 62
     0
 10
60.6266
 20
22.0624
 30
0.0
 11
60.6266
 21
26.5327
 31
0.0
  0
LINE
  8
0
 62
     0
 10
60.6266
 20
26.5327
 30
0.0
 11
62.151
 21
26.5327
 31
0.0
  0
LINE
  8
0
 62
     0
 10
62.151
 20
26.5327
 30
0.0
 11
62.151
 21
21.8323
 31
0.0
  0
LINE
  8
0
 62
     0
 10
62.151
 20
21.8323
 30
0.0
 11
76.1517
 21
21.8323
 31
0.0
  0
LINE
  8
0
 62
     0
 10
76.1517
 20
21.8323
 30
0.0
 11
76.1517
 21
26.5327
 31
0.0
  0
LINE
  8
0
 62
     0
 10
76.1517
 20
26.5327
 30
0.0
 11
77.676
 21
26.5327
 31
0.0
  0
LINE
  8
0
 62
     0
 10
77.676
 20
26.5327
 30
0.0
 11
77.676
 21
22.0624
 31
0.0
  0
LINE
  8
0
 62
     0
 10
77.676
 20
22.0624
 30
0.0
 11
79.4011
 21
22.0624
 31
0.0
  0
LINE
  8
0
 62
     0
 10
79.4011
 20
22.0624
 30
0.0
 11
79.4011
 21
21.0826
 31
0.0
  0
LINE
  8
0
 62
     0
 10
79.4011
 20
21.0826
 30
0.0
 11
82.7017
 21
21.0826
 31
0.0
  0
LINE
  8
0
 62
     0
 10
82.7017
 20
21.0826
 30
0.0
 11
82.7017
 21
22.0624
 31
0.0
  0
LINE
  8
0
 62
     0
 10
82.7017
 20
22.0624
 30
0.0
 11
84.4268
 21
22.0624
 31
0.0
  0
LINE
  8
0
 62
     0
 10
84.4268
 20
22.0624
 30
0.0
 11
84.4268
 21
28.3325
 31
0.0
  0
LINE
  8
0
 62
     0
 10
84.4268
 20
28.3325
 30
0.0
 11
85.2509
 21
28.3325
 31
0.0
  0
LINE
  8
0
 62
     0
 10
85.2509
 20
28.3325
 30
0.0
 11
85.2509
 21
31.1326
 31
0.0
  0
LINE
  8
0
 62
     0
 10
85.2509
 20
31.1326
 30
0.0
 11
84.4268
 21
31.1326
 31
0.0
  0
LINE
  8
0
 62
     0
 10
84.4268
 20
31.1326
 30
0.0
 11
84.4268
 21
34.3628
 31
0.0
  0
LINE
  8
0
 62
     0
 10
84.4268
 20
34.3628
 30
0.0
 11
82.7017
 21
34.3628
 31
0.0
  0
LINE
  8
0
 62
     0
 10
82.7017
 20
34.3628
 30
0.0
 11
82.7017
 21
35.2834
 31
0.0
  0
LINE
  8
0
 62
     0
 10
82.7017
 20
35.2834
 30
0.0
 11
79.4011
 21
35.2834
 31
0.0
  0
LINE
  8
0
 62
     0
 10
79.4011
 20
35.2834
 30
0.0
 11
79.4011
 21
34.3628
 31
0.0
  0
LINE
  8
0
 62
     0
 10
79.4011
 20
34.3628
 30
0.0
 11
77.676
 21
34.3628
 31
0.0
  0
LINE
  8
0
 62
     0
 10
77.676
 20
34.3628
 30
0.0
 11
77.676
 21
31.1326
 31
0.0
  0
LINE
  8
0
 62
     0
 10
77.676
 20
31.1326
 30
0.0
 11
76.1517
 21
31.1326
 31
0.0
  0
LINE
  8
0
 62
     0
 10
76.1517
 20
31.1326
 30
0.0
 11
76.1517
 21
35.8316
 31
0.0
  0
LINE
  8
0
 62
     0
 10
76.1517
 20
35.8316
 30
0.0
 11
62.151
 21
35.8316
 31
0.0
  0
LINE
  8
0
 62
     0
 10
264.557
 20
35.8316
 30
0.0
 11
278.558
 21
35.8316
 31
0.0
  0
LINE
  8
0
 62
     0
 10
278.558
 20
35.8316
 30
0.0
 11
278.558
 21
21.8323
 31
0.0
  0
LINE
  8
0
 62
     0
 10
278.558
 20
21.8323
 30
0.0
 11
264.557
 21
21.8323
 31
0.0
  0
LINE
  8
0
 62
     0
 10
264.557
 20
21.8323
 30
0.0
 11
264.557
 21
35.8316
 31
0.0
  0
LINE
  8
0
 62
     0
 10
245.507
 20
35.8316
 30
0.0
 11
259.508
 21
35.8316
 31
0.0
  0
LINE
  8
0
 62
     0
 10
259.508
 20
35.8316
 30
0.0
 11
259.508
 21
21.8323
 31
0.0
  0
LINE
  8
0
 62
     0
 10
259.508
 20
21.8323
 30
0.0
 11
245.507
 21
21.8323
 31
0.0
  0
LINE
  8
0
 62
     0
 10
245.507
 20
21.8323
 30
0.0
 11
245.507
 21
35.8316
 31
0.0
  0
LINE
  8
0
 62
     0
 10
226.457
 20
35.8316
 30
0.0
 11
240.458
 21
35.8316
 31
0.0
  0
LINE
  8
0
 62
     0
 10
240.458
 20
35.8316
 30
0.0
 11
240.458
 21
21.8323
 31
0.0
  0
LINE
  8
0
 62
     0
 10
240.458
 20
21.8323
 30
0.0
 11
226.457
 21
21.8323
 31
0.0
  0
LINE
  8
0
 62
     0
 10
226.457
 20
21.8323
 30
0.0
 11
226.457
 21
35.8316
 31
0.0
  0
LINE
  8
0
 62
     0
 10
207.407
 20
35.8316
 30
0.0
 11
221.408
 21
35.8316
 31
0.0
  0
LINE
  8
0
 62
     0
 10
221.408
 20
35.8316
 30
0.0
 11
221.408
 21
21.8323
 31
0.0
  0
LINE
  8
0
 62
     0
 10
221.408
 20
21.8323
 30
0.0
 11
207.407
 21
21.8323
 31
0.0
  0
LINE
  8
0
 62
     0
 10
207.407
 20
21.8323
 30
0.0
 11
207.407
 21
35.8316
 31
0.0
  0
LINE
  8
0
 62
     0
 10
188.357
 20
35.8316
 30
0.0
 11
202.358
 21
35.8316
 31
0.0
  0
LINE
  8
0
 62
     0
 10
202.358
 20
35.8316
 30
0.0
 11
202.358
 21
21.8323
 31
0.0
  0
LINE
  8
0
 62
     0
 10
202.358
 20
21.8323
 30
0.0
 11
188.357
 21
21.8323
 31
0.0
  0
LINE
  8
0
 62
     0
 10
188.357
 20
21.8323
 30
0.0
 11
188.357
 21
35.8316
 31
0.0
  0
LINE
  8
0
 62
     0
 10
169.307
 20
35.8316
 30
0.0
 11
183.308
 21
35.8316
 31
0.0
  0
LINE
  8
0
 62
     0
 10
183.308
 20
35.8316
 30
0.0
 11
183.308
 21
21.8323
 31
0.0
  0
LINE
  8
0
 62
     0
 10
183.308
 20
21.8323
 30
0.0
 11
169.307
 21
21.8323
 31
0.0
  0
LINE
  8
0
 62
     0
 10
169.307
 20
21.8323
 30
0.0
 11
169.307
 21
35.8316
 31
0.0
  0
LINE
  8
0
 62
     0
 10
150.257
 20
35.8316
 30
0.0
 11
164.258
 21
35.8316
 31
0.0
  0
LINE
  8
0
 62
     0
 10
164.258
 20
35.8316
 30
0.0
 11
164.258
 21
21.8323
 31
0.0
  0
LINE
  8
0
 62
     0
 10
164.258
 20
21.8323
 30
0.0
 11
150.257
 21
21.8323
 31
0.0
  0
LINE
  8
0
 62
     0
 10
150.257
 20
21.8323
 30
0.0
 11
150.257
 21
35.8316
 31
0.0
  0
LINE
  8
0
 62
     0
 10
131.207
 20
35.8316
 30
0.0
 11
145.208
 21
35.8316
 31
0.0
  0
LINE
  8
0
 62
     0
 10
145.208
 20
35.8316
 30
0.0
 11
145.208
 21
21.8323
 31
0.0
  0
LINE
  8
0
 62
     0
 10
145.208
 20
21.8323
 30
0.0
 11
131.207
 21
21.8323
 31
0.0
  0
LINE
  8
0
 62
     0
 10
131.207
 20
21.8323
 30
0.0
 11
131.207
 21
35.8316
 31
0.0
  0
LINE
  8
0
 62
     0
 10
112.157
 20
35.8316
 30
0.0
 11
126.158
 21
35.8316
 31
0.0
  0
LINE
  8
0
 62
     0
 10
126.158
 20
35.8316
 30
0.0
 11
126.158
 21
21.8323
 31
0.0
  0
LINE
  8
0
 62
     0
 10
126.158
 20
21.8323
 30
0.0
 11
112.157
 21
21.8323
 31
0.0
  0
LINE
  8
0
 62
     0
 10
112.157
 20
21.8323
 30
0.0
 11
112.157
 21
35.8316
 31
0.0
  0
LINE
  8
0
 62
     0
 10
93.1072
 20
35.8316
 30
0.0
 11
107.108
 21
35.8316
 31
0.0
  0
LINE
  8
0
 62
     0
 10
107.108
 20
35.8316
 30
0.0
 11
107.108
 21
21.8323
 31
0.0
  0
LINE
  8
0
 62
     0
 10
107.108
 20
21.8323
 30
0.0
 11
93.1072
 21
21.8323
 31
0.0
  0
LINE
  8
0
 62
     0
 10
93.1072
 20
21.8323
 30
0.0
 11
93.1072
 21
35.8316
 31
0.0
  0
LINE
  8
0
 62
     0
 10
21.671
 20
35.8316
 30
0.0
 11
35.6704
 21
35.8316
 31
0.0
  0
LINE
  8
0
 62
     0
 10
35.6704
 20
35.8316
 30
0.0
 11
35.6704
 21
21.8323
 31
0.0
  0
LINE
  8
0
 62
     0
 10
35.6704
 20
21.8323
 30
0.0
 11
21.671
 21
21.8323
 31
0.0
  0
LINE
  8
0
 62
     0
 10
21.671
 20
21.8323
 30
0.0
 11
21.671
 21
35.8316
 31
0.0
  0
LINE
  8
0
 62
     0
 10
2.62103
 20
35.8316
 30
0.0
 11
16.6205
 21
35.8316
 31
0.0
  0
LINE
  8
0
 62
     0
 10
16.6205
 20
35.8316
 30
0.0
 11
16.6205
 21
21.8323
 31
0.0
  0
LINE
  8
0
 62
     0
 10
16.6205
 20
21.8323
 30
0.0
 11
2.62103
 21
21.8323
 31
0.0
  0
LINE
  8
0
 62
     0
 10
2.62103
 20
21.8323
 30
0.0
 11
2.62103
 21
35.8316
 31
0.0
  0
LINE
  8
0
 62
     0
 10
305.038
 20
54.8816
 30
0.0
 11
305.038
 21
50.1826
 31
0.0
  0
LINE
  8
0
 62
     0
 10
305.038
 20
50.1826
 30
0.0
 11
303.513
 21
50.1826
 31
0.0
  0
LINE
  8
0
 62
     0
 10
303.513
 20
50.1826
 30
0.0
 11
303.513
 21
53.4127
 31
0.0
  0
LINE
  8
0
 62
     0
 10
303.513
 20
53.4127
 30
0.0
 11
301.789
 21
53.4127
 31
0.0
  0
LINE
  8
0
 62
     0
 10
301.789
 20
53.4127
 30
0.0
 11
301.789
 21
54.332
 31
0.0
  0
LINE
  8
0
 62
     0
 10
301.789
 20
54.332
 30
0.0
 11
298.488
 21
54.332
 31
0.0
  0
LINE
  8
0
 62
     0
 10
298.488
 20
54.332
 30
0.0
 11
298.488
 21
53.4127
 31
0.0
  0
LINE
  8
0
 62
     0
 10
298.488
 20
53.4127
 30
0.0
 11
296.763
 21
53.4127
 31
0.0
  0
LINE
  8
0
 62
     0
 10
296.763
 20
53.4127
 30
0.0
 11
296.763
 21
50.1826
 31
0.0
  0
LINE
  8
0
 62
     0
 10
296.763
 20
50.1826
 30
0.0
 11
295.938
 21
50.1826
 31
0.0
  0
LINE
  8
0
 62
     0
 10
295.938
 20
50.1826
 30
0.0
 11
295.938
 21
47.3826
 31
0.0
  0
LINE
  8
0
 62
     0
 10
295.938
 20
47.3826
 30
0.0
 11
296.763
 21
47.3826
 31
0.0
  0
LINE
  8
0
 62
     0
 10
296.763
 20
47.3826
 30
0.0
 11
296.763
 21
41.1138
 31
0.0
  0
LINE
  8
0
 62
     0
 10
296.763
 20
41.1138
 30
0.0
 11
298.488
 21
41.1138
 31
0.0
  0
LINE
  8
0
 62
     0
 10
298.488
 20
41.1138
 30
0.0
 11
298.488
 21
40.1327
 31
0.0
  0
LINE
  8
0
 62
     0
 10
298.488
 20
40.1327
 30
0.0
 11
301.789
 21
40.1327
 31
0.0
  0
LINE
  8
0
 62
     0
 10
301.789
 20
40.1327
 30
0.0
 11
301.789
 21
41.1138
 31
0.0
  0
LINE
  8
0
 62
     0
 10
301.789
 20
41.1138
 30
0.0
 11
303.513
 21
41.1138
 31
0.0
  0
LINE
  8
0
 62
     0
 10
303.513
 20
41.1138
 30
0.0
 11
303.513
 21
45.5828
 31
0.0
  0
LINE
  8
0
 62
     0
 10
303.513
 20
45.5828
 30
0.0
 11
305.038
 21
45.5828
 31
0.0
  0
LINE
  8
0
 62
     0
 10
305.038
 20
45.5828
 30
0.0
 11
305.038
 21
40.8824
 31
0.0
  0
LINE
  8
0
 62
     0
 10
305.038
 20
40.8824
 30
0.0
 11
319.038
 21
40.8824
 31
0.0
  0
LINE
  8
0
 62
     0
 10
319.038
 20
40.8824
 30
0.0
 11
319.038
 21
45.5828
 31
0.0
  0
LINE
  8
0
 62
     0
 10
319.038
 20
45.5828
 30
0.0
 11
320.564
 21
45.5828
 31
0.0
  0
LINE
  8
0
 62
     0
 10
320.564
 20
45.5828
 30
0.0
 11
320.564
 21
41.1138
 31
0.0
  0
LINE
  8
0
 62
     0
 10
320.564
 20
41.1138
 30
0.0
 11
322.289
 21
41.1138
 31
0.0
  0
LINE
  8
0
 62
     0
 10
322.289
 20
41.1138
 30
0.0
 11
322.289
 21
40.1327
 31
0.0
  0
LINE
  8
0
 62
     0
 10
322.289
 20
40.1327
 30
0.0
 11
325.589
 21
40.1327
 31
0.0
  0
LINE
  8
0
 62
     0
 10
325.589
 20
40.1327
 30
0.0
 11
325.589
 21
41.1138
 31
0.0
  0
LINE
  8
0
 62
     0
 10
325.589
 20
41.1138
 30
0.0
 11
327.313
 21
41.1138
 31
0.0
  0
LINE
  8
0
 62
     0
 10
327.313
 20
41.1138
 30
0.0
 11
327.313
 21
47.3826
 31
0.0
  0
LINE
  8
0
 62
     0
 10
327.313
 20
47.3826
 30
0.0
 11
328.138
 21
47.3826
 31
0.0
  0
LINE
  8
0
 62
     0
 10
328.138
 20
47.3826
 30
0.0
 11
328.138
 21
50.1826
 31
0.0
  0
LINE
  8
0
 62
     0
 10
328.138
 20
50.1826
 30
0.0
 11
327.313
 21
50.1826
 31
0.0
  0
LINE
  8
0
 62
     0
 10
327.313
 20
50.1826
 30
0.0
 11
327.313
 21
53.4127
 31
0.0
  0
LINE
  8
0
 62
     0
 10
327.313
 20
53.4127
 30
0.0
 11
325.589
 21
53.4127
 31
0.0
  0
LINE
  8
0
 62
     0
 10
325.589
 20
53.4127
 30
0.0
 11
325.589
 21
54.332
 31
0.0
  0
LINE
  8
0
 62
     0
 10
325.589
 20
54.332
 30
0.0
 11
322.289
 21
54.332
 31
0.0
  0
LINE
  8
0
 62
     0
 10
322.289
 20
54.332
 30
0.0
 11
322.289
 21
53.4127
 31
0.0
  0
LINE
  8
0
 62
     0
 10
322.289
 20
53.4127
 30
0.0
 11
320.564
 21
53.4127
 31
0.0
  0
LINE
  8
0
 62
     0
 10
320.564
 20
53.4127
 30
0.0
 11
320.564
 21
50.1826
 31
0.0
  0
LINE
  8
0
 62
     0
 10
320.564
 20
50.1826
 30
0.0
 11
319.038
 21
50.1826
 31
0.0
  0
LINE
  8
0
 62
     0
 10
319.038
 20
50.1826
 30
0.0
 11
319.038
 21
54.8816
 31
0.0
  0
LINE
  8
0
 62
     0
 10
319.038
 20
54.8816
 30
0.0
 11
305.038
 21
54.8816
 31
0.0
  0
LINE
  8
0
 62
     0
 10
274.082
 20
54.8816
 30
0.0
 11
288.083
 21
54.8816
 31
0.0
  0
LINE
  8
0
 62
     0
 10
288.083
 20
54.8816
 30
0.0
 11
288.083
 21
40.8824
 31
0.0
  0
LINE
  8
0
 62
     0
 10
288.083
 20
40.8824
 30
0.0
 11
274.082
 21
40.8824
 31
0.0
  0
LINE
  8
0
 62
     0
 10
274.082
 20
40.8824
 30
0.0
 11
274.082
 21
54.8816
 31
0.0
  0
LINE
  8
0
 62
     0
 10
255.032
 20
54.8816
 30
0.0
 11
269.033
 21
54.8816
 31
0.0
  0
LINE
  8
0
 62
     0
 10
269.033
 20
54.8816
 30
0.0
 11
269.033
 21
40.8824
 31
0.0
  0
LINE
  8
0
 62
     0
 10
269.033
 20
40.8824
 30
0.0
 11
255.032
 21
40.8824
 31
0.0
  0
LINE
  8
0
 62
     0
 10
255.032
 20
40.8824
 30
0.0
 11
255.032
 21
54.8816
 31
0.0
  0
LINE
  8
0
 62
     0
 10
235.982
 20
54.8816
 30
0.0
 11
249.983
 21
54.8816
 31
0.0
  0
LINE
  8
0
 62
     0
 10
249.983
 20
54.8816
 30
0.0
 11
249.983
 21
40.8824
 31
0.0
  0
LINE
  8
0
 62
     0
 10
249.983
 20
40.8824
 30
0.0
 11
235.982
 21
40.8824
 31
0.0
  0
LINE
  8
0
 62
     0
 10
235.982
 20
40.8824
 30
0.0
 11
235.982
 21
54.8816
 31
0.0
  0
LINE
  8
0
 62
     0
 10
216.932
 20
54.8816
 30
0.0
 11
230.933
 21
54.8816
 31
0.0
  0
LINE
  8
0
 62
     0
 10
230.933
 20
54.8816
 30
0.0
 11
230.933
 21
40.8824
 31
0.0
  0
LINE
  8
0
 62
     0
 10
230.933
 20
40.8824
 30
0.0
 11
216.932
 21
40.8824
 31
0.0
  0
LINE
  8
0
 62
     0
 10
216.932
 20
40.8824
 30
0.0
 11
216.932
 21
54.8816
 31
0.0
  0
LINE
  8
0
 62
     0
 10
197.882
 20
54.8816
 30
0.0
 11
211.883
 21
54.8816
 31
0.0
  0
LINE
  8
0
 62
     0
 10
211.883
 20
54.8816
 30
0.0
 11
211.883
 21
40.8824
 31
0.0
  0
LINE
  8
0
 62
     0
 10
211.883
 20
40.8824
 30
0.0
 11
197.882
 21
40.8824
 31
0.0
  0
LINE
  8
0
 62
     0
 10
197.882
 20
40.8824
 30
0.0
 11
197.882
 21
54.8816
 31
0.0
  0
LINE
  8
0
 62
     0
 10
178.832
 20
54.8816
 30
0.0
 11
192.833
 21
54.8816
 31
0.0
  0
LINE
  8
0
 62
     0
 10
192.833
 20
54.8816
 30
0.0
 11
192.833
 21
40.8824
 31
0.0
  0
LINE
  8
0
 62
     0
 10
192.833
 20
40.8824
 30
0.0
 11
178.832
 21
40.8824
 31
0.0
  0
LINE
  8
0
 62
     0
 10
178.832
 20
40.8824
 30
0.0
 11
178.832
 21
54.8816
 31
0.0
  0
LINE
  8
0
 62
     0
 10
159.782
 20
54.8816
 30
0.0
 11
173.783
 21
54.8816
 31
0.0
  0
LINE
  8
0
 62
     0
 10
173.783
 20
54.8816
 30
0.0
 11
173.783
 21
40.8824
 31
0.0
  0
LINE
  8
0
 62
     0
 10
173.783
 20
40.8824
 30
0.0
 11
159.782
 21
40.8824
 31
0.0
  0
LINE
  8
0
 62
     0
 10
159.782
 20
40.8824
 30
0.0
 11
159.782
 21
54.8816
 31
0.0
  0
LINE
  8
0
 62
     0
 10
140.732
 20
54.8816
 30
0.0
 11
154.733
 21
54.8816
 31
0.0
  0
LINE
  8
0
 62
     0
 10
154.733
 20
54.8816
 30
0.0
 11
154.733
 21
40.8824
 31
0.0
  0
LINE
  8
0
 62
     0
 10
154.733
 20
40.8824
 30
0.0
 11
140.732
 21
40.8824
 31
0.0
  0
LINE
  8
0
 62
     0
 10
140.732
 20
40.8824
 30
0.0
 11
140.732
 21
54.8816
 31
0.0
  0
LINE
  8
0
 62
     0
 10
121.682
 20
54.8816
 30
0.0
 11
135.683
 21
54.8816
 31
0.0
  0
LINE
  8
0
 62
     0
 10
135.683
 20
54.8816
 30
0.0
 11
135.683
 21
40.8824
 31
0.0
  0
LINE
  8
0
 62
     0
 10
135.683
 20
40.8824
 30
0.0
 11
121.682
 21
40.8824
 31
0.0
  0
LINE
  8
0
 62
     0
 10
121.682
 20
40.8824
 30
0.0
 11
121.682
 21
54.8816
 31
0.0
  0
LINE
  8
0
 62
     0
 10
102.632
 20
54.8816
 30
0.0
 11
116.633
 21
54.8816
 31
0.0
  0
LINE
  8
0
 62
     0
 10
116.633
 20
54.8816
 30
0.0
 11
116.633
 21
40.8824
 31
0.0
  0
LINE
  8
0
 62
     0
 10
116.633
 20
40.8824
 30
0.0
 11
102.632
 21
40.8824
 31
0.0
  0
LINE
  8
0
 62
     0
 10
102.632
 20
40.8824
 30
0.0
 11
102.632
 21
54.8816
 31
0.0
  0
LINE
  8
0
 62
     0
 10
83.5822
 20
54.8816
 30
0.0
 11
97.5829
 21
54.8816
 31
0.0
  0
LINE
  8
0
 62
     0
 10
97.5829
 20
54.8816
 30
0.0
 11
97.5829
 21
40.8824
 31
0.0
  0
LINE
  8
0
 62
     0
 10
97.5829
 20
40.8824
 30
0.0
 11
83.5822
 21
40.8824
 31
0.0
  0
LINE
  8
0
 62
     0
 10
83.5822
 20
40.8824
 30
0.0
 11
83.5822
 21
54.8816
 31
0.0
  0
LINE
  8
0
 62
     0
 10
52.626
 20
54.8816
 30
0.0
 11
71.3878
 21
54.8816
 31
0.0
  0
LINE
  8
0
 62
     0
 10
71.3878
 20
54.8816
 30
0.0
 11
71.3878
 21
40.8824
 31
0.0
  0
LINE
  8
0
 62
     0
 10
71.3878
 20
40.8824
 30
0.0
 11
52.626
 21
40.8824
 31
0.0
  0
LINE
  8
0
 62
     0
 10
52.626
 20
40.8824
 30
0.0
 11
52.626
 21
54.8816
 31
0.0
  0
LINE
  8
0
 62
     0
 10
21.671
 20
54.8816
 30
0.0
 11
35.6704
 21
54.8816
 31
0.0
  0
LINE
  8
0
 62
     0
 10
35.6704
 20
54.8816
 30
0.0
 11
35.6704
 21
40.8824
 31
0.0
  0
LINE
  8
0
 62
     0
 10
35.6704
 20
40.8824
 30
0.0
 11
21.671
 21
40.8824
 31
0.0
  0
LINE
  8
0
 62
     0
 10
21.671
 20
40.8824
 30
0.0
 11
21.671
 21
54.8816
 31
0.0
  0
LINE
  8
0
 62
     0
 10
2.62103
 20
54.8816
 30
0.0
 11
16.6205
 21
54.8816
 31
0.0
  0
LINE
  8
0
 62
     0
 10
16.6205
 20
54.8816
 30
0.0
 11
16.6205
 21
40.8824
 31
0.0
  0
LINE
  8
0
 62
     0
 10
16.6205
 20
40.8824
 30
0.0
 11
2.62103
 21
40.8824
 31
0.0
  0
LINE
  8
0
 62
     0
 10
2.62103
 20
40.8824
 30
0.0
 11
2.62103
 21
54.8816
 31
0.0
  0
LINE
  8
0
 62
     0
 10
312.182
 20
73.9316
 30
0.0
 11
326.183
 21
73.9316
 31
0.0
  0
LINE
  8
0
 62
     0
 10
326.183
 20
73.9316
 30
0.0
 11
326.183
 21
59.9324
 31
0.0
  0
LINE
  8
0
 62
     0
 10
326.183
 20
59.9324
 30
0.0
 11
312.182
 21
59.9324
 31
0.0
  0
LINE
  8
0
 62
     0
 10
312.182
 20
59.9324
 30
0.0
 11
312.182
 21
73.9316
 31
0.0
  0
LINE
  8
0
 62
     0
 10
288.371
 20
73.9316
 30
0.0
 11
302.37
 21
73.9316
 31
0.0
  0
LINE
  8
0
 62
     0
 10
302.37
 20
73.9316
 30
0.0
 11
302.37
 21
59.9324
 31
0.0
  0
LINE
  8
0
 62
     0
 10
302.37
 20
59.9324
 30
0.0
 11
288.371
 21
59.9324
 31
0.0
  0
LINE
  8
0
 62
     0
 10
288.371
 20
59.9324
 30
0.0
 11
288.371
 21
73.9316
 31
0.0
  0
LINE
  8
0
 62
     0
 10
269.321
 20
73.9316
 30
0.0
 11
283.32
 21
73.9316
 31
0.0
  0
LINE
  8
0
 62
     0
 10
283.32
 20
73.9316
 30
0.0
 11
283.32
 21
59.9324
 31
0.0
  0
LINE
  8
0
 62
     0
 10
283.32
 20
59.9324
 30
0.0
 11
269.321
 21
59.9324
 31
0.0
  0
LINE
  8
0
 62
     0
 10
269.321
 20
59.9324
 30
0.0
 11
269.321
 21
73.9316
 31
0.0
  0
LINE
  8
0
 62
     0
 10
250.271
 20
73.9316
 30
0.0
 11
264.27
 21
73.9316
 31
0.0
  0
LINE
  8
0
 62
     0
 10
264.27
 20
73.9316
 30
0.0
 11
264.27
 21
59.9324
 31
0.0
  0
LINE
  8
0
 62
     0
 10
264.27
 20
59.9324
 30
0.0
 11
250.271
 21
59.9324
 31
0.0
  0
LINE
  8
0
 62
     0
 10
250.271
 20
59.9324
 30
0.0
 11
250.271
 21
73.9316
 31
0.0
  0
LINE
  8
0
 62
     0
 10
231.221
 20
73.9316
 30
0.0
 11
245.22
 21
73.9316
 31
0.0
  0
LINE
  8
0
 62
     0
 10
245.22
 20
73.9316
 30
0.0
 11
245.22
 21
59.9324
 31
0.0
  0
LINE
  8
0
 62
     0
 10
245.22
 20
59.9324
 30
0.0
 11
231.221
 21
59.9324
 31
0.0
  0
LINE
  8
0
 62
     0
 10
231.221
 20
59.9324
 30
0.0
 11
231.221
 21
73.9316
 31
0.0
  0
LINE
  8
0
 62
     0
 10
212.171
 20
73.9316
 30
0.0
 11
226.17
 21
73.9316
 31
0.0
  0
LINE
  8
0
 62
     0
 10
226.17
 20
73.9316
 30
0.0
 11
226.17
 21
59.9324
 31
0.0
  0
LINE
  8
0
 62
     0
 10
226.17
 20
59.9324
 30
0.0
 11
212.171
 21
59.9324
 31
0.0
  0
LINE
  8
0
 62
     0
 10
212.171
 20
59.9324
 30
0.0
 11
212.171
 21
73.9316
 31
0.0
  0
LINE
  8
0
 62
     0
 10
193.121
 20
73.9316
 30
0.0
 11
207.12
 21
73.9316
 31
0.0
  0
LINE
  8
0
 62
     0
 10
207.12
 20
73.9316
 30
0.0
 11
207.12
 21
59.9324
 31
0.0
  0
LINE
  8
0
 62
     0
 10
207.12
 20
59.9324
 30
0.0
 11
193.121
 21
59.9324
 31
0.0
  0
LINE
  8
0
 62
     0
 10
193.121
 20
59.9324
 30
0.0
 11
193.121
 21
73.9316
 31
0.0
  0
LINE
  8
0
 62
     0
 10
174.071
 20
73.9316
 30
0.0
 11
188.07
 21
73.9316
 31
0.0
  0
LINE
  8
0
 62
     0
 10
188.07
 20
73.9316
 30
0.0
 11
188.07
 21
59.9324
 31
0.0
  0
LINE
  8
0
 62
     0
 10
188.07
 20
59.9324
 30
0.0
 11
174.071
 21
59.9324
 31
0.0
  0
LINE
  8
0
 62
     0
 10
174.071
 20
59.9324
 30
0.0
 11
174.071
 21
73.9316
 31
0.0
  0
LINE
  8
0
 62
     0
 10
155.021
 20
73.9316
 30
0.0
 11
169.02
 21
73.9316
 31
0.0
  0
LINE
  8
0
 62
     0
 10
169.02
 20
73.9316
 30
0.0
 11
169.02
 21
59.9324
 31
0.0
  0
LINE
  8
0
 62
     0
 10
169.02
 20
59.9324
 30
0.0
 11
155.021
 21
59.9324
 31
0.0
  0
LINE
  8
0
 62
     0
 10
155.021
 20
59.9324
 30
0.0
 11
155.021
 21
73.9316
 31
0.0
  0
LINE
  8
0
 62
     0
 10
135.971
 20
73.9316
 30
0.0
 11
149.97
 21
73.9316
 31
0.0
  0
LINE
  8
0
 62
     0
 10
149.97
 20
73.9316
 30
0.0
 11
149.97
 21
59.9324
 31
0.0
  0
LINE
  8
0
 62
     0
 10
149.97
 20
59.9324
 30
0.0
 11
135.971
 21
59.9324
 31
0.0
  0
LINE
  8
0
 62
     0
 10
135.971
 20
59.9324
 30
0.0
 11
135.971
 21
73.9316
 31
0.0
  0
LINE
  8
0
 62
     0
 10
116.921
 20
73.9316
 30
0.0
 11
130.92
 21
73.9316
 31
0.0
  0
LINE
  8
0
 62
     0
 10
130.92
 20
73.9316
 30
0.0
 11
130.92
 21
59.9324
 31
0.0
  0
LINE
  8
0
 62
     0
 10
130.92
 20
59.9324
 30
0.0
 11
116.921
 21
59.9324
 31
0.0
  0
LINE
  8
0
 62
     0
 10
116.921
 20
59.9324
 30
0.0
 11
116.921
 21
73.9316
 31
0.0
  0
LINE
  8
0
 62
     0
 10
97.8711
 20
73.9316
 30
0.0
 11
111.87
 21
73.9316
 31
0.0
  0
LINE
  8
0
 62
     0
 10
111.87
 20
73.9316
 30
0.0
 11
111.87
 21
59.9324
 31
0.0
  0
LINE
  8
0
 62
     0
 10
111.87
 20
59.9324
 30
0.0
 11
97.8711
 21
59.9324
 31
0.0
  0
LINE
  8
0
 62
     0
 10
97.8711
 20
59.9324
 30
0.0
 11
97.8711
 21
73.9316
 31
0.0
  0
LINE
  8
0
 62
     0
 10
78.8211
 20
73.9316
 30
0.0
 11
92.8204
 21
73.9316
 31
0.0
  0
LINE
  8
0
 62
     0
 10
92.8204
 20
73.9316
 30
0.0
 11
92.8204
 21
59.9324
 31
0.0
  0
LINE
  8
0
 62
     0
 10
92.8204
 20
59.9324
 30
0.0
 11
78.8211
 21
59.9324
 31
0.0
  0
LINE
  8
0
 62
     0
 10
78.8211
 20
59.9324
 30
0.0
 11
78.8211
 21
73.9316
 31
0.0
  0
LINE
  8
0
 62
     0
 10
55.0072
 20
73.9316
 30
0.0
 11
69.0079
 21
73.9316
 31
0.0
  0
LINE
  8
0
 62
     0
 10
69.0079
 20
73.9316
 30
0.0
 11
69.0079
 21
59.9324
 31
0.0
  0
LINE
  8
0
 62
     0
 10
69.0079
 20
59.9324
 30
0.0
 11
55.0072
 21
59.9324
 31
0.0
  0
LINE
  8
0
 62
     0
 10
55.0072
 20
59.9324
 30
0.0
 11
55.0072
 21
73.9316
 31
0.0
  0
LINE
  8
0
 62
     0
 10
21.671
 20
73.9316
 30
0.0
 11
35.6704
 21
73.9316
 31
0.0
  0
LINE
  8
0
 62
     0
 10
35.6704
 20
73.9316
 30
0.0
 11
35.6704
 21
59.9324
 31
0.0
  0
LINE
  8
0
 62
     0
 10
35.6704
 20
59.9324
 30
0.0
 11
21.671
 21
59.9324
 31
0.0
  0
LINE
  8
0
 62
     0
 10
21.671
 20
59.9324
 30
0.0
 11
21.671
 21
73.9316
 31
0.0
  0
LINE
  8
0
 62
     0
 10
2.62103
 20
73.9316
 30
0.0
 11
16.6205
 21
73.9316
 31
0.0
  0
LINE
  8
0
 62
     0
 10
16.6205
 20
73.9316
 30
0.0
 11
16.6205
 21
59.9324
 31
0.0
  0
LINE
  8
0
 62
     0
 10
16.6205
 20
59.9324
 30
0.0
 11
2.62103
 21
59.9324
 31
0.0
  0
LINE
  8
0
 62
     0
 10
2.62103
 20
59.9324
 30
0.0
 11
2.62103
 21
73.9316
 31
0.0
  0
LINE
  8
0
 62
     0
 10
297.896
 20
92.9816
 30
0.0
 11
297.896
 21
78.9824
 31
0.0
  0
LINE
  8
0
 62
     0
 10
297.896
 20
78.9824
 30
0.0
 11
300.87
 21
78.9824
 31
0.0
  0
LINE
  8
0
 62
     0
 10
300.87
 20
78.9824
 30
0.0
 11
300.87
 21
78.2327
 31
0.0
  0
LINE
  8
0
 62
     0
 10
300.87
 20
78.2327
 30
0.0
 11
304.17
 21
78.2327
 31
0.0
  0
LINE
  8
0
 62
     0
 10
304.17
 20
78.2327
 30
0.0
 11
304.17
 21
78.9824
 31
0.0
  0
LINE
  8
0
 62
     0
 10
304.17
 20
78.9824
 30
0.0
 11
324.67
 21
78.9824
 31
0.0
  0
LINE
  8
0
 62
     0
 10
324.67
 20
78.9824
 30
0.0
 11
324.67
 21
78.2327
 31
0.0
  0
LINE
  8
0
 62
     0
 10
324.67
 20
78.2327
 30
0.0
 11
327.97
 21
78.2327
 31
0.0
  0
LINE
  8
0
 62
     0
 10
327.97
 20
78.2327
 30
0.0
 11
327.97
 21
78.9824
 31
0.0
  0
LINE
  8
0
 62
     0
 10
327.97
 20
78.9824
 30
0.0
 11
330.945
 21
78.9824
 31
0.0
  0
LINE
  8
0
 62
     0
 10
330.945
 20
78.9824
 30
0.0
 11
330.945
 21
92.9816
 31
0.0
  0
LINE
  8
0
 62
     0
 10
330.945
 20
92.9816
 30
0.0
 11
297.896
 21
92.9816
 31
0.0
  0
LINE
  8
0
 62
     0
 10
278.846
 20
92.9816
 30
0.0
 11
292.845
 21
92.9816
 31
0.0
  0
LINE
  8
0
 62
     0
 10
292.845
 20
92.9816
 30
0.0
 11
292.845
 21
78.9824
 31
0.0
  0
LINE
  8
0
 62
     0
 10
292.845
 20
78.9824
 30
0.0
 11
278.846
 21
78.9824
 31
0.0
  0
LINE
  8
0
 62
     0
 10
278.846
 20
78.9824
 30
0.0
 11
278.846
 21
92.9816
 31
0.0
  0
LINE
  8
0
 62
     0
 10
259.796
 20
92.9816
 30
0.0
 11
273.795
 21
92.9816
 31
0.0
  0
LINE
  8
0
 62
     0
 10
273.795
 20
92.9816
 30
0.0
 11
273.795
 21
78.9824
 31
0.0
  0
LINE
  8
0
 62
     0
 10
273.795
 20
78.9824
 30
0.0
 11
259.796
 21
78.9824
 31
0.0
  0
LINE
  8
0
 62
     0
 10
259.796
 20
78.9824
 30
0.0
 11
259.796
 21
92.9816
 31
0.0
  0
LINE
  8
0
 62
     0
 10
240.746
 20
92.9816
 30
0.0
 11
254.744
 21
92.9816
 31
0.0
  0
LINE
  8
0
 62
     0
 10
254.744
 20
92.9816
 30
0.0
 11
254.744
 21
78.9824
 31
0.0
  0
LINE
  8
0
 62
     0
 10
254.744
 20
78.9824
 30
0.0
 11
240.746
 21
78.9824
 31
0.0
  0
LINE
  8
0
 62
     0
 10
240.746
 20
78.9824
 30
0.0
 11
240.746
 21
92.9816
 31
0.0
  0
LINE
  8
0
 62
     0
 10
221.696
 20
92.9816
 30
0.0
 11
235.695
 21
92.9816
 31
0.0
  0
LINE
  8
0
 62
     0
 10
235.695
 20
92.9816
 30
0.0
 11
235.695
 21
78.9824
 31
0.0
  0
LINE
  8
0
 62
     0
 10
235.695
 20
78.9824
 30
0.0
 11
221.696
 21
78.9824
 31
0.0
  0
LINE
  8
0
 62
     0
 10
221.696
 20
78.9824
 30
0.0
 11
221.696
 21
92.9816
 31
0.0
  0
LINE
  8
0
 62
     0
 10
202.646
 20
92.9816
 30
0.0
 11
216.645
 21
92.9816
 31
0.0
  0
LINE
  8
0
 62
     0
 10
216.645
 20
92.9816
 30
0.0
 11
216.645
 21
78.9824
 31
0.0
  0
LINE
  8
0
 62
     0
 10
216.645
 20
78.9824
 30
0.0
 11
202.646
 21
78.9824
 31
0.0
  0
LINE
  8
0
 62
     0
 10
202.646
 20
78.9824
 30
0.0
 11
202.646
 21
92.9816
 31
0.0
  0
LINE
  8
0
 62
     0
 10
183.596
 20
92.9816
 30
0.0
 11
197.595
 21
92.9816
 31
0.0
  0
LINE
  8
0
 62
     0
 10
197.595
 20
92.9816
 30
0.0
 11
197.595
 21
78.9824
 31
0.0
  0
LINE
  8
0
 62
     0
 10
197.595
 20
78.9824
 30
0.0
 11
183.596
 21
78.9824
 31
0.0
  0
LINE
  8
0
 62
     0
 10
183.596
 20
78.9824
 30
0.0
 11
183.596
 21
92.9816
 31
0.0
  0
LINE
  8
0
 62
     0
 10
164.546
 20
92.9816
 30
0.0
 11
178.545
 21
92.9816
 31
0.0
  0
LINE
  8
0
 62
     0
 10
178.545
 20
92.9816
 30
0.0
 11
178.545
 21
78.9824
 31
0.0
  0
LINE
  8
0
 62
     0
 10
178.545
 20
78.9824
 30
0.0
 11
164.546
 21
78.9824
 31
0.0
  0
LINE
  8
0
 62
     0
 10
164.546
 20
78.9824
 30
0.0
 11
164.546
 21
92.9816
 31
0.0
  0
LINE
  8
0
 62
     0
 10
145.496
 20
92.9816
 30
0.0
 11
159.495
 21
92.9816
 31
0.0
  0
LINE
  8
0
 62
     0
 10
159.495
 20
92.9816
 30
0.0
 11
159.495
 21
78.9824
 31
0.0
  0
LINE
  8
0
 62
     0
 10
159.495
 20
78.9824
 30
0.0
 11
145.496
 21
78.9824
 31
0.0
  0
LINE
  8
0
 62
     0
 10
145.496
 20
78.9824
 30
0.0
 11
145.496
 21
92.9816
 31
0.0
  0
LINE
  8
0
 62
     0
 10
126.446
 20
92.9816
 30
0.0
 11
140.445
 21
92.9816
 31
0.0
  0
LINE
  8
0
 62
     0
 10
140.445
 20
92.9816
 30
0.0
 11
140.445
 21
78.9824
 31
0.0
  0
LINE
  8
0
 62
     0
 10
140.445
 20
78.9824
 30
0.0
 11
126.446
 21
78.9824
 31
0.0
  0
LINE
  8
0
 62
     0
 10
126.446
 20
78.9824
 30
0.0
 11
126.446
 21
92.9816
 31
0.0
  0
LINE
  8
0
 62
     0
 10
107.396
 20
92.9816
 30
0.0
 11
121.395
 21
92.9816
 31
0.0
  0
LINE
  8
0
 62
     0
 10
121.395
 20
92.9816
 30
0.0
 11
121.395
 21
78.9824
 31
0.0
  0
LINE
  8
0
 62
     0
 10
121.395
 20
78.9824
 30
0.0
 11
107.396
 21
78.9824
 31
0.0
  0
LINE
  8
0
 62
     0
 10
107.396
 20
78.9824
 30
0.0
 11
107.396
 21
92.9816
 31
0.0
  0
LINE
  8
0
 62
     0
 10
88.3461
 20
92.9816
 30
0.0
 11
102.345
 21
92.9816
 31
0.0
  0
LINE
  8
0
 62
     0
 10
102.345
 20
92.9816
 30
0.0
 11
102.345
 21
78.9824
 31
0.0
  0
LINE
  8
0
 62
     0
 10
102.345
 20
78.9824
 30
0.0
 11
88.3461
 21
78.9824
 31
0.0
  0
LINE
  8
0
 62
     0
 10
88.3461
 20
78.9824
 30
0.0
 11
88.3461
 21
92.9816
 31
0.0
  0
LINE
  8
0
 62
     0
 10
69.2961
 20
92.9816
 30
0.0
 11
83.2954
 21
92.9816
 31
0.0
  0
LINE
  8
0
 62
     0
 10
83.2954
 20
92.9816
 30
0.0
 11
83.2954
 21
78.9824
 31
0.0
  0
LINE
  8
0
 62
     0
 10
83.2954
 20
78.9824
 30
0.0
 11
69.2961
 21
78.9824
 31
0.0
  0
LINE
  8
0
 62
     0
 10
69.2961
 20
78.9824
 30
0.0
 11
69.2961
 21
92.9816
 31
0.0
  0
LINE
  8
0
 62
     0
 10
50.2461
 20
92.9816
 30
0.0
 11
64.2454
 21
92.9816
 31
0.0
  0
LINE
  8
0
 62
     0
 10
64.2454
 20
92.9816
 30
0.0
 11
64.2454
 21
78.9824
 31
0.0
  0
LINE
  8
0
 62
     0
 10
64.2454
 20
78.9824
 30
0.0
 11
50.2461
 21
78.9824
 31
0.0
  0
LINE
  8
0
 62
     0
 10
50.2461
 20
78.9824
 30
0.0
 11
50.2461
 21
92.9816
 31
0.0
  0
LINE
  8
0
 62
     0
 10
21.671
 20
92.9816
 30
0.0
 11
35.6704
 21
92.9816
 31
0.0
  0
LINE
  8
0
 62
     0
 10
35.6704
 20
92.9816
 30
0.0
 11
35.6704
 21
78.9824
 31
0.0
  0
LINE
  8
0
 62
     0
 10
35.6704
 20
78.9824
 30
0.0
 11
21.671
 21
78.9824
 31
0.0
  0
LINE
  8
0
 62
     0
 10
21.671
 20
78.9824
 30
0.0
 11
21.671
 21
92.9816
 31
0.0
  0
LINE
  8
0
 62
     0
 10
2.62103
 20
92.9816
 30
0.0
 11
16.6205
 21
92.9816
 31
0.0
  0
LINE
  8
0
 62
     0
 10
16.6205
 20
92.9816
 30
0.0
 11
16.6205
 21
78.9824
 31
0.0
  0
LINE
  8
0
 62
     0
 10
16.6205
 20
78.9824
 30
0.0
 11
2.62103
 21
78.9824
 31
0.0
  0
LINE
  8
0
 62
     0
 10
2.62103
 20
78.9824
 30
0.0
 11
2.62103
 21
92.9816
 31
0.0
  0
ENDSEC
  0
EOF
